<?xml version="1.0" encoding="iso-8859-1"?>
<!-- Generator: Adobe Illustrator 21.0.1, SVG Export Plug-In . SVG Version: 6.00 Build 0)  -->
<svg version="1.1" id="&#x30EC;&#x30A4;&#x30E4;&#x30FC;_1"
	 xmlns="http://www.w3.org/2000/svg" xmlns:xlink="http://www.w3.org/1999/xlink" x="0px" y="0px" viewBox="0 0 221.101 70.482"
	 style="enable-background:new 0 0 221.101 70.482;" xml:space="preserve">
<g>
	<g>
		<path style="fill:#FFFFFF;" d="M50.341,15.18V9.758c0-5.628-4.771-8.907-9.683-8.907H22.846v38.726h9.912V25.248l9.838,14.329
			h10.455L42.054,23.313C46.131,22.679,50.341,19.384,50.341,15.18z M41.434,14.406c0,1.274-1.382,2.634-2.711,2.634h-5.965V7.977
			h6.198c1.328,0,2.478,1.307,2.478,2.478C41.434,10.455,41.434,14.406,41.434,14.406z M70.632,29.508
			c4.987,0,9.461-3.308,9.461-9.526c0-4.782-4.274-8.984-9.848-8.984h-4.053c-5.505,0-9.307,4.37-9.423,10.299v8.211
			c0,6.333,5.03,10.07,9.835,10.07h11.618v-6.042h-9.217c-1.699,0-3.175-1.164-3.175-2.71v-1.317L70.632,29.508L70.632,29.508z
			 M65.831,20.137c0-1.728,1.409-2.95,3.021-2.95c2.292,0,3.64,1.057,3.64,3.106c0,1.851-1.268,3.175-3.331,3.175h-3.329
			L65.831,20.137L65.831,20.137z M184.161,30.825v-1.317h4.803c4.988,0,9.461-3.308,9.461-9.526c0-4.782-4.275-8.984-9.848-8.984
			h-4.055c-5.502,0-9.305,4.37-9.422,10.299v8.211c0,6.333,5.031,10.07,9.836,10.07h11.617v-6.042h-9.215
			C185.638,33.536,184.161,32.372,184.161,30.825z M184.161,20.137c0-1.728,1.414-2.95,3.023-2.95c2.289,0,3.639,1.057,3.639,3.106
			c0,1.851-1.268,3.175-3.332,3.175h-3.33V20.137z M98.591,11.075H87.672v6.118h8.751c1.429,0,2.71,0.984,2.71,2.401v0.774h-5.034
			c-3.873,0-9.138,3.613-9.138,8.676v1.702c0,4.603,3.357,8.831,9.371,8.831h13.863V21.376
			C108.196,15.4,105.32,11.075,98.591,11.075z M99.113,33.48c-1.497-0.064-2.676,0.165-3.624-0.326
			c-1.757-0.909-2.181-4.442-0.702-5.866c0.926-0.891,2.51-0.867,4.216-0.815h0.11C99.202,28.684,99.202,31.27,99.113,33.48z
			 M148.624,11.075v6.196h9.217l-10.455,22.306h22.15v-6.196h-9.838l10.457-22.306C170.155,11.075,148.624,11.075,148.624,11.075z
			 M115.787,39.578h8.982V0.851h-8.982V39.578z M132.517,39.578h8.982V11.075h-8.982V39.578z M137.007,0
			c-2.781,0-5.033,1.906-5.033,4.26c0,2.353,2.252,4.26,5.033,4.26c2.779,0,5.033-1.907,5.033-4.26
			C142.04,1.906,139.786,0,137.007,0z"/>
	</g>
	<g>
		<path style="fill:#FFFFFF;" d="M43.758,49.269h1.586l2.107,6.066l2.067-6.066h1.587v7.299h-0.962v-6.316h-0.019l-2.222,6.316
			H46.96l-2.222-6.316h-0.02v6.316h-0.961L43.758,49.269L43.758,49.269z"/>
		<path style="fill:#FFFFFF;" d="M55.167,51.611c0.45-0.293,0.989-0.5,1.614-0.5c1.404,0,1.972,0.752,1.972,2.205v2.207
			c0,0.605,0.02,0.889,0.038,1.045h-0.844v-0.689h-0.02c-0.213,0.322-0.694,0.814-1.521,0.814c-1.057,0-1.798-0.502-1.798-1.662
			c0-1.338,1.347-1.756,2.279-1.756c0.356,0,0.605,0,0.962,0.021c0-0.922-0.309-1.393-1.211-1.393c-0.512,0-1.06,0.211-1.425,0.545
			L55.167,51.611z M57.85,54.027c-0.193,0-0.385-0.021-0.577-0.021c-0.491,0-1.703,0.084-1.703,1.025
			c0,0.564,0.499,0.867,0.914,0.867c0.894,0,1.366-0.605,1.366-1.4C57.85,54.498,57.85,54.027,57.85,54.027z"/>
		<path style="fill:#FFFFFF;" d="M62.303,48.726h0.904V53.4l1.972-2.164h1.231L64.131,53.6l2.568,2.969h-1.298l-2.194-2.74v2.74
			h-0.904V48.726z"/>
		<path style="fill:#FFFFFF;" d="M73.461,56.35c-0.346,0.135-0.742,0.344-1.548,0.344c-1.743,0-2.54-1.148-2.54-2.885
			c0-1.58,0.914-2.697,2.299-2.697c1.636,0,2.165,1.295,2.165,3.01h-3.502c0,1.057,0.76,1.777,1.616,1.777
			c0.595,0,1.289-0.334,1.51-0.531C73.461,55.368,73.461,56.35,73.461,56.35z M72.874,53.389c0-0.814-0.442-1.484-1.222-1.484
			c-0.884,0-1.25,0.795-1.317,1.484H72.874z"/>
		<path style="fill:#FFFFFF;" d="M80.599,49.269h0.963v7.299h-0.963V49.269z"/>
		<path style="fill:#FFFFFF;" d="M86.582,50.191h-2.087v-0.922h5.136v0.922h-2.087v6.377h-0.962
			C86.582,56.568,86.582,50.191,86.582,50.191z"/>
		<path style="fill:#FFFFFF;" d="M96.578,49.269h1.643c1.328,0,2.607,0.231,2.607,1.977c0,0.889-0.605,1.516-1.385,1.662v0.021
			c0.3,0.125,0.442,0.283,0.652,0.732l1.27,2.906h-1.095l-1.029-2.529c-0.298-0.711-0.615-0.711-1.125-0.711H97.54v3.24h-0.962
			V49.269z M97.539,52.406h0.816c0.914,0,1.452-0.438,1.452-1.139c0-0.658-0.462-1.076-1.346-1.076h-0.923L97.539,52.406
			L97.539,52.406z"/>
		<path style="fill:#FFFFFF;" d="M108.254,56.35c-0.347,0.135-0.741,0.344-1.549,0.344c-1.741,0-2.539-1.148-2.539-2.885
			c0-1.58,0.913-2.697,2.299-2.697c1.636,0,2.164,1.295,2.164,3.01h-3.501c0,1.057,0.758,1.777,1.616,1.777
			c0.596,0,1.288-0.334,1.51-0.531V56.35z M107.667,53.389c0-0.814-0.443-1.484-1.222-1.484c-0.886,0-1.252,0.795-1.317,1.484
			H107.667z"/>
		<path style="fill:#FFFFFF;" d="M112.092,51.611c0.453-0.293,0.991-0.5,1.616-0.5c1.405,0,1.972,0.752,1.972,2.205v2.207
			c0,0.605,0.02,0.889,0.039,1.045h-0.849v-0.689h-0.018c-0.212,0.322-0.692,0.814-1.52,0.814c-1.059,0-1.799-0.502-1.799-1.662
			c0-1.338,1.346-1.756,2.28-1.756c0.354,0,0.605,0,0.961,0.021c0-0.922-0.307-1.393-1.212-1.393c-0.51,0-1.058,0.211-1.424,0.545
			L112.092,51.611z M114.776,54.027c-0.192,0-0.385-0.021-0.576-0.021c-0.491,0-1.703,0.084-1.703,1.025
			c0,0.564,0.499,0.867,0.913,0.867c0.895,0,1.366-0.605,1.366-1.4V54.027z"/>
		<path style="fill:#FFFFFF;" d="M119.345,48.726h0.906v7.842h-0.906V48.726z"/>
		<path style="fill:#FFFFFF;" d="M127.974,49.269h1.818c1.395,0,2.357,0.492,2.357,1.842c0,1.004-0.541,1.504-1.387,1.736v0.02
			c0.914,0.084,1.559,0.732,1.559,1.758c0,1.566-1.193,1.943-2.559,1.943h-1.789v-7.299H127.974z M128.934,52.387h0.529
			c0.934,0,1.723-0.094,1.723-1.172c0-0.867-0.684-1.088-1.242-1.088h-1.01L128.934,52.387L128.934,52.387z M128.934,55.711h0.721
			c0.867,0,1.647-0.197,1.647-1.182c0-1.129-0.914-1.285-1.742-1.285h-0.625L128.934,55.711L128.934,55.711z"/>
		<path style="fill:#FFFFFF;" d="M139.987,56.568h-0.875V55.72h-0.02c-0.268,0.607-0.922,0.973-1.605,0.973
			c-1.27,0-1.836-0.857-1.836-2.289v-3.168h0.9v2.76c0,1.244,0.252,1.852,1.039,1.902c1.029,0,1.492-0.898,1.492-2.195v-2.467h0.904
			L139.987,56.568L139.987,56.568z"/>
		<path style="fill:#FFFFFF;" d="M143.325,55.523c0.355,0.25,0.865,0.375,1.125,0.375c0.414,0,0.924-0.188,0.924-0.762
			c0-0.973-2.125-0.889-2.125-2.385c0-1.107,0.76-1.641,1.732-1.641c0.422,0,0.768,0.094,1.123,0.207l-0.076,0.859
			c-0.201-0.137-0.74-0.273-0.953-0.273c-0.461,0-0.865,0.211-0.865,0.65c0,1.086,2.125,0.773,2.125,2.477
			c0,1.141-0.836,1.662-1.711,1.662c-0.463,0-0.932-0.051-1.346-0.291L143.325,55.523z"/>
		<path style="fill:#FFFFFF;" d="M150.53,50.045h-1.019v-1.109h1.019V50.045z M149.569,51.236h0.902v5.332h-0.902V51.236z"/>
		<path style="fill:#FFFFFF;" d="M153.907,51.236h0.875v0.848h0.02c0.268-0.608,0.922-0.973,1.605-0.973
			c1.27,0,1.838,0.857,1.838,2.289v3.168h-0.904v-2.76c0-1.244-0.25-1.852-1.037-1.904c-1.029,0-1.492,0.9-1.492,2.197v2.467h-0.904
			L153.907,51.236L153.907,51.236z"/>
		<path style="fill:#FFFFFF;" d="M165.517,56.35c-0.346,0.135-0.742,0.344-1.549,0.344c-1.742,0-2.539-1.148-2.539-2.885
			c0-1.58,0.914-2.697,2.299-2.697c1.633,0,2.164,1.295,2.164,3.01h-3.502c0,1.057,0.762,1.777,1.617,1.777
			c0.596,0,1.287-0.334,1.51-0.531V56.35z M164.931,53.389c0-0.814-0.443-1.484-1.223-1.484c-0.885,0-1.25,0.795-1.318,1.484
			H164.931z"/>
		<path style="fill:#FFFFFF;" d="M168.71,55.523c0.357,0.25,0.867,0.375,1.125,0.375c0.416,0,0.926-0.188,0.926-0.762
			c0-0.973-2.129-0.889-2.129-2.385c0-1.107,0.762-1.641,1.734-1.641c0.422,0,0.768,0.094,1.125,0.207l-0.078,0.859
			c-0.203-0.137-0.74-0.273-0.951-0.273c-0.463,0-0.865,0.211-0.865,0.65c0,1.086,2.125,0.773,2.125,2.477
			c0,1.141-0.836,1.662-1.713,1.662c-0.461,0-0.932-0.051-1.348-0.291L168.71,55.523z"/>
		<path style="fill:#FFFFFF;" d="M174.472,55.523c0.357,0.25,0.867,0.375,1.125,0.375c0.414,0,0.926-0.188,0.926-0.762
			c0-0.973-2.129-0.889-2.129-2.385c0-1.107,0.762-1.641,1.734-1.641c0.422,0,0.768,0.094,1.125,0.207l-0.078,0.859
			c-0.203-0.137-0.74-0.273-0.953-0.273c-0.461,0-0.865,0.211-0.865,0.65c0,1.086,2.127,0.773,2.127,2.477
			c0,1.141-0.836,1.662-1.713,1.662c-0.461,0-0.932-0.051-1.348-0.291L174.472,55.523z"/>
	</g>
	<g>
		<rect y="65.982" style="fill:#FFFFFF;" width="198.425" height="1.5"/>
		<rect x="22.676" y="68.982" style="fill:#FFFFFF;" width="198.424" height="1.5"/>
	</g>
</g>
</svg>
