<?xml version="1.0" encoding="iso-8859-1"?>
<!-- Generator: Adobe Illustrator 21.0.1, SVG Export Plug-In . SVG Version: 6.00 Build 0)  -->
<svg version="1.1" id="&#x30EC;&#x30A4;&#x30E4;&#x30FC;_1"
	 xmlns="http://www.w3.org/2000/svg" xmlns:xlink="http://www.w3.org/1999/xlink" x="0px" y="0px" viewBox="0 0 340.158 41.983"
	 style="enable-background:new 0 0 340.158 41.983;" xml:space="preserve">
<g>
	<g>
		<g>
			<path d="M240.4,30.506h1.275l4.727,7.29h0.028v-7.29h1.132v8.987h-1.314l-4.691-7.21h-0.022v7.21H240.4V30.506z"/>
			<path d="M251.846,31.515h-2.995v-1.009h7.183v1.009h-2.992v7.979h-1.195V31.515z"/>
			<path d="M259.843,31.515h-2.995v-1.009h7.188v1.009h-2.995v7.979h-1.198V31.515z"/>
			<path d="M269.157,30.506h3.081c2.769,0,4.317,1.386,4.317,4.28c0,3.01-1.322,4.707-4.317,4.707h-3.081V30.506z M270.35,38.484
				h1.993c0.814,0,3.018-0.226,3.018-3.534c0-2.139-0.792-3.436-2.995-3.436h-2.016V38.484z"/>
			<path d="M280.464,30.506h1.319l3.511,8.987h-1.322l-0.982-2.704h-3.798l-1.009,2.704h-1.232L280.464,30.506z M279.568,35.781
				h3.047l-1.497-4.192h-0.029L279.568,35.781z"/>
			<path d="M287.552,31.515h-2.998v-1.009h7.186v1.009h-2.995v7.979h-1.192V31.515z"/>
			<path d="M294.513,30.506h1.322l3.508,8.987h-1.316l-0.985-2.704h-3.799l-1.008,2.704h-1.23L294.513,30.506z M293.62,35.781h3.047
				l-1.501-4.192h-0.025L293.62,35.781z"/>
			<path d="M311.072,38.371c-0.693,0.946-1.822,1.337-2.88,1.337c-2.681,0-4.282-2.19-4.282-4.532c0-2.619,1.438-4.881,4.282-4.881
				c1.962,0,3.523,0.877,3.859,2.982h-1.192c-0.236-1.358-1.333-1.974-2.667-1.974c-2.18,0-3.087,1.888-3.087,3.812
				c0,1.876,1.086,3.586,3.087,3.586c1.85,0,2.958-1.293,2.88-2.933h-2.868V34.76h3.938v4.733h-0.755L311.072,38.371z"/>
			<path d="M314.085,32.989h1.008v1.367h0.026c0.516-1.042,1.232-1.56,2.391-1.523v1.135c-1.726,0-2.354,0.982-2.354,2.633v2.893
				h-1.071V32.989z"/>
			<path d="M321.4,32.833c2.062,0,3.159,1.501,3.159,3.412c0,1.901-1.097,3.399-3.159,3.399s-3.159-1.498-3.159-3.399
				C318.241,34.334,319.338,32.833,321.4,32.833z M321.4,38.7c1.12,0,2.027-0.879,2.027-2.455c0-1.584-0.907-2.467-2.027-2.467
				s-2.027,0.883-2.027,2.467C319.373,37.821,320.28,38.7,321.4,38.7z"/>
			<path d="M331.498,39.493h-1.009v-1.032h-0.022c-0.455,0.808-1.184,1.184-2.114,1.184c-1.717,0-2.24-0.985-2.24-2.379v-4.276
				h1.068v4.403c0,0.793,0.501,1.308,1.322,1.308c1.296,0,1.926-0.868,1.926-2.038v-3.673h1.069V39.493z"/>
			<path d="M333.425,32.989h1.068v0.878h0.025c0.352-0.716,1.184-1.034,2.077-1.034c2.001,0,2.995,1.59,2.995,3.426
				c0,1.836-0.982,3.386-2.97,3.386c-0.665,0-1.624-0.254-2.103-1.02h-0.025v3.358h-1.068V32.989z M336.445,33.778
				c-1.436,0-1.99,1.235-1.99,2.455c0,1.284,0.579,2.467,2.054,2.467c1.46,0,1.947-1.247,1.947-2.515
				C338.456,34.962,337.831,33.778,336.445,33.778z"/>
		</g>
		<rect x="177.507" y="22.54" style="fill:#5185C5;" width="162.651" height="1.847"/>
		<g>
			<path d="M191.569,15.967h-1.071l-0.201-2.843h-0.04c-1.052,2.232-3.157,3.172-5.412,3.172c-4.934,0-7.384-3.875-7.384-8.147
				c0-4.271,2.45-8.148,7.384-8.148c3.283,0,5.959,1.772,6.529,5.194h-1.492c-0.195-1.801-2.059-3.931-5.037-3.931
				c-4.145,0-5.893,3.467-5.893,6.885c0,3.416,1.748,6.881,5.893,6.881c3.459,0,5.475-2.434,5.412-5.741h-5.328V8.017h6.641V15.967z
				"/>
			<path d="M193.592,0.327h1.379v15.64h-1.379V0.327z"/>
			<path d="M207.035,10.316c0,3.244-1.884,5.979-5.351,5.979c-3.459,0-5.343-2.735-5.343-5.979c0-3.24,1.884-5.983,5.343-5.983
				C205.151,4.333,207.035,7.076,207.035,10.316z M197.725,10.316c0,2.411,1.314,4.819,3.96,4.819c2.652,0,3.966-2.408,3.966-4.819
				c0-2.406-1.313-4.823-3.966-4.823C199.038,5.493,197.725,7.91,197.725,10.316z"/>
			<path d="M208.403,0.327h1.38v6.484h0.043c0.593-1.617,2.234-2.478,3.926-2.478c3.433,0,5.08,2.785,5.08,5.983
				s-1.647,5.979-5.08,5.979c-1.82,0-3.396-0.939-4.035-2.474h-0.04v2.144h-1.274V0.327z M213.752,5.493
				c-2.941,0-3.969,2.479-3.969,4.823c0,2.343,1.028,4.819,3.969,4.819c2.626,0,3.7-2.476,3.7-4.819
				C217.452,7.973,216.378,5.493,213.752,5.493z"/>
			<path d="M220.047,8.126c0.127-2.648,1.99-3.793,4.577-3.793c1.995,0,4.161,0.617,4.161,3.64v6.002
				c0,0.527,0.265,0.831,0.807,0.831c0.155,0,0.334-0.04,0.443-0.085v1.162c-0.306,0.065-0.524,0.084-0.895,0.084
				c-1.405,0-1.625-0.783-1.625-1.969h-0.043c-0.965,1.469-1.949,2.298-4.121,2.298c-2.079,0-3.79-1.029-3.79-3.305
				c0-3.177,3.09-3.293,6.071-3.636c1.138-0.136,1.776-0.285,1.776-1.536c0-1.862-1.339-2.326-2.96-2.326
				c-1.708,0-2.981,0.795-3.021,2.633H220.047z M227.408,9.795h-0.049c-0.17,0.325-0.786,0.438-1.157,0.497
				c-2.345,0.422-5.256,0.396-5.256,2.608c0,1.383,1.227,2.235,2.517,2.235c2.103,0,3.963-1.336,3.945-3.547V9.795z"/>
			<path d="M230.894,0.327h1.382v15.64h-1.382V0.327z"/>
			<path d="M240.705,0.327h1.489v15.64h-1.489V0.327z"/>
			<path d="M243.583,0.327h12.396v1.27h-5.455v14.37h-1.486V1.597h-5.454V0.327z"/>
			<path d="M261.447,0.327h1.489v15.64h-1.489V0.327z"/>
			<path d="M265.14,4.664h1.382v1.952h0.041c0.504-1.359,2.013-2.283,3.614-2.283c3.177,0,4.142,1.67,4.142,4.36v7.273h-1.38V8.918
				c0-1.956-0.64-3.425-2.871-3.425c-2.186,0-3.505,1.671-3.546,3.884v6.59h-1.382V4.664z"/>
			<path d="M276.188,4.664h1.382v1.952h0.046c0.505-1.359,2.014-2.283,3.612-2.283c3.176,0,4.141,1.67,4.141,4.36v7.273h-1.376
				V8.918c0-1.956-0.64-3.425-2.877-3.425c-2.187,0-3.5,1.671-3.546,3.884v6.59h-1.382V4.664z"/>
			<path d="M297.344,10.316c0,3.244-1.884,5.979-5.346,5.979c-3.459,0-5.342-2.735-5.342-5.979c0-3.24,1.883-5.983,5.342-5.983
				C295.46,4.333,297.344,7.076,297.344,10.316z M288.035,10.316c0,2.411,1.316,4.819,3.963,4.819c2.653,0,3.966-2.408,3.966-4.819
				c0-2.406-1.312-4.823-3.966-4.823C289.352,5.493,288.035,7.91,288.035,10.316z"/>
			<path d="M297.064,4.664h1.532l3.551,9.928h0.046l3.505-9.928h1.423l-4.23,11.303h-1.466L297.064,4.664z"/>
			<path d="M307.349,8.126c0.13-2.648,1.993-3.793,4.576-3.793c1.996,0,4.165,0.617,4.165,3.64v6.002
				c0,0.527,0.262,0.831,0.811,0.831c0.153,0,0.326-0.04,0.435-0.085v1.162c-0.306,0.065-0.524,0.084-0.898,0.084
				c-1.403,0-1.622-0.783-1.622-1.969h-0.04c-0.968,1.469-1.95,2.298-4.118,2.298c-2.082,0-3.79-1.029-3.79-3.305
				c0-3.177,3.084-3.293,6.07-3.636c1.135-0.136,1.768-0.285,1.768-1.536c0-1.862-1.336-2.326-2.955-2.326
				c-1.71,0-2.978,0.795-3.023,2.633H307.349z M314.707,9.795h-0.037c-0.179,0.325-0.792,0.438-1.164,0.497
				c-2.344,0.422-5.259,0.396-5.259,2.608c0,1.383,1.227,2.235,2.518,2.235c2.103,0,3.972-1.336,3.942-3.547V9.795z"/>
			<path d="M320.107,4.664h2.298v1.162h-2.298v7.622c0,0.901,0.13,1.427,1.117,1.488c0.392,0,0.789-0.019,1.181-0.061v1.184
				c-0.417,0-0.807,0.042-1.227,0.042c-1.838,0-2.474-0.612-2.451-2.54V5.826h-1.973V4.664h1.973v-3.4h1.38V4.664z"/>
			<path d="M333.2,10.316c0,3.244-1.884,5.979-5.349,5.979c-3.459,0-5.343-2.735-5.343-5.979c0-3.24,1.884-5.983,5.343-5.983
				C331.316,4.333,333.2,7.076,333.2,10.316z M323.889,10.316c0,2.411,1.313,4.819,3.963,4.819c2.652,0,3.969-2.408,3.969-4.819
				c0-2.406-1.316-4.823-3.969-4.823C325.202,5.493,323.889,7.91,323.889,10.316z"/>
			<path d="M334.57,4.664h1.271v2.655h0.043c0.703-1.826,2.235-2.892,4.274-2.809v1.384c-2.5-0.132-4.211,1.708-4.211,4.056v6.018
				h-1.377V4.664z"/>
		</g>
	</g>
	<g>
		<path style="fill:#5185C5;" d="M25.078,9.199v4.965c0,0,7.037,0,7.569,0c0,0.549,0,18.625,0,18.625h5.357c0,0,0-18.076,0-18.625
			c0.532,0,7.571,0,7.571,0V9.199H25.078z"/>
		<path style="fill:#5185C5;" d="M105.502,27.742c-0.811,0-1.721-0.413-1.721-2.438c0-2.022,0.9-2.374,1.721-2.374
			c0,0,9.559,0,10.101,0v4.811C115.061,27.742,105.502,27.742,105.502,27.742z M113.281,9.199H99.788v5.003h13.137
			c1.924,0,2.376,0.901,2.678,3.136c0.001,0.015,0.001,0.643,0.001,0.836c-0.537,0-10.884,0-10.884,0
			c-4.142,0-6.199,2.068-6.199,6.746v1.119c0,4.807,2.133,6.743,6.426,6.743h15.956V17.277
			C120.902,11.338,118.941,9.199,113.281,9.199z"/>
		<path style="fill:#5185C5;" d="M149.994,27.742c-0.818,0-1.72-0.413-1.72-2.438c0-2.022,0.898-2.374,1.72-2.374
			c0,0,9.561,0,10.1,0v4.811C159.556,27.742,149.994,27.742,149.994,27.742z M157.772,9.199h-13.495v5.003h13.138
			c1.927,0,2.679,0.878,2.679,3.136c0,0.015,0,0.643,0,0.836c-0.538,0-10.884,0-10.884,0c-4.138,0-6.197,2.068-6.197,6.746v1.119
			c0,4.807,2.131,6.743,6.422,6.743h15.968V17.277C165.402,11.338,163.438,9.199,157.772,9.199z"/>
		<path style="fill:#5185C5;" d="M47.278,9.199v4.965c0,0,7.033,0,7.566,0c0,0.549,0,18.625,0,18.625h5.363c0,0,0-18.076,0-18.625
			c0.529,0,7.566,0,7.566,0V9.199H47.278z"/>
		<path style="fill:#5185C5;" d="M121.984,9.199v4.965c0,0,7.037,0,7.567,0c0,0.549,0,18.625,0,18.625h5.359c0,0,0-18.076,0-18.625
			c0.533,0,7.565,0,7.565,0V9.199H121.984z"/>
		<path style="fill:#5185C5;" d="M90.968,24.628c0,2.258-0.76,3.136-2.692,3.136c0,0-8.092,0-8.621,0V14.222
			c0.529,0,8.621,0,8.621,0c1.933,0,2.692,0.877,2.692,3.138C90.968,17.371,90.968,24.628,90.968,24.628z M96.44,24.521v-7.06
			c0-6.177-2.399-8.262-7.806-8.262H74.29v23.583h14.598C94.626,32.782,96.44,29.933,96.44,24.521z"/>
		<path style="fill:#5185C5;" d="M17.522,27.166c-0.114-0.215-7.281-14.165-8.15-15.542c-1.014-1.587-2.238-2.692-4.6-2.692
			C2.588,8.932,0,9.906,0,15.158v17.633h5.285c0,0,0-13.653,0-14.708c0-1.056-0.069-2.621-0.078-2.934
			c-0.012-0.257-0.003-0.507,0.127-0.585c0.152-0.086,0.303,0.055,0.409,0.251c0.099,0.192,6.737,13.331,8.148,15.546
			c1.013,1.584,2.239,2.691,4.594,2.691c2.19,0,4.782-0.97,4.782-6.221V9.19H17.98c0,0,0,13.657,0,14.708
			c0,1.056,0.062,2.624,0.077,2.938c0.012,0.26,0.003,0.504-0.13,0.58C17.775,27.505,17.629,27.362,17.522,27.166z"/>
	</g>
</g>
</svg>
